HIERARCHY
ROOT root
{
	OFFSET	0	13.1	24.9
	CHANNELS 6  Xposition Yposition Zposition Xrotation Yrotation Zrotation
	JOINT spine_1
	{
		OFFSET	0	9.99999	0
		CHANNELS 3  Xrotation Yrotation Zrotation
		JOINT spine_2
		{
			OFFSET	0	112	-10
			CHANNELS 3  Xrotation Yrotation Zrotation
			JOINT spine_3
			{
				OFFSET	0	206.5	19.3
				CHANNELS 3  Xrotation Yrotation Zrotation
				JOINT spine_4
				{
					OFFSET	0	110.4	14.6
					CHANNELS 3  Xrotation Yrotation Zrotation
					JOINT neck_1
					{
						OFFSET	0	71.8	-50.3
						CHANNELS 3  Xrotation Yrotation Zrotation
						JOINT neck_2
						{
							OFFSET	0	86.2	-25.8
							CHANNELS 3  Xrotation Yrotation Zrotation
							JOINT head_ee
							{
								OFFSET	0	179.8	-8.7
								CHANNELS 3  Xrotation Yrotation Zrotation
								End Site
								{
									OFFSET	1	0	0
								}
							}
						}
					}
					JOINT left_clavicle
					{
						OFFSET	-43.2	22.4	-70.8
						CHANNELS 3  Xrotation Yrotation Zrotation
						JOINT left_shoulder
						{
							OFFSET	-93.9	-5.79999	48.7
							CHANNELS 3  Xrotation Yrotation Zrotation
							JOINT left_elbow
							{
								OFFSET	-291.4	-30.8	15.2
								CHANNELS 3  Xrotation Yrotation Zrotation
								JOINT left_lowarm_twist
								{
									OFFSET	-110.7	-3.89999	13.6
									CHANNELS 3  Xrotation Yrotation Zrotation
									JOINT left_hand
									{
										OFFSET	-110.7	-3.89999	13.6
										CHANNELS 3  Xrotation Yrotation Zrotation
										JOINT left_ee
										{
											OFFSET	-80.8	-5.10001	12.1
											CHANNELS 3  Xrotation Yrotation Zrotation
											End Site
											{
												OFFSET	1	0	0
											}
										}
									}
								}
							}
						}
					}
					JOINT right_clavicle
					{
						OFFSET	43.2	22.4	-70.8
						CHANNELS 3  Xrotation Yrotation Zrotation
						JOINT right_shoulder
						{
							OFFSET	93.9	-5.79999	48.7
							CHANNELS 3  Xrotation Yrotation Zrotation
							JOINT right_elbow
							{
								OFFSET	291.4	-30.8	15.2
								CHANNELS 3  Xrotation Yrotation Zrotation
								JOINT right_lowarm_twist
								{
									OFFSET	110.7	-3.89999	13.6
									CHANNELS 3  Xrotation Yrotation Zrotation
									JOINT right_hand
									{
										OFFSET	110.7	-3.89999	13.6
										CHANNELS 3  Xrotation Yrotation Zrotation
										JOINT right_ee
										{
											OFFSET	80.8	-5.10001	12.1
											CHANNELS 3  Xrotation Yrotation Zrotation
											End Site
											{
												OFFSET	1	0	0
											}
										}
									}
								}
							}
						}
					}
				}
			}
		}
	}
	JOINT left_hip
	{
		OFFSET	-82.8	-127.5	0.300001
		CHANNELS 3  Xrotation Yrotation Zrotation
		JOINT left_knee
		{
			OFFSET	-28.2	-396.7	2.2
			CHANNELS 3  Xrotation Yrotation Zrotation
			JOINT left_ankle
			{
				OFFSET	-11.7	-411.3	35.4
				CHANNELS 3  Xrotation Yrotation Zrotation
				JOINT left_toes
				{
					OFFSET	0	-60	-88.6
					CHANNELS 3  Xrotation Yrotation Zrotation
					JOINT left_foot_ee
					{
						OFFSET	-22.5	-16.5	-42.2
						CHANNELS 3  Xrotation Yrotation Zrotation
						End Site
						{
							OFFSET	1	0	0
						}
					}
				}
			}
		}
	}
	JOINT right_hip
	{
		OFFSET	82.8	-127.5	0.300001
		CHANNELS 3  Xrotation Yrotation Zrotation
		JOINT right_knee
		{
			OFFSET	28.2	-396.7	2.2
			CHANNELS 3  Xrotation Yrotation Zrotation
			JOINT right_ankle
			{
				OFFSET	11.7	-411.3	35.4
				CHANNELS 3  Xrotation Yrotation Zrotation
				JOINT right_toes
				{
					OFFSET	0	-60	-88.6
					CHANNELS 3  Xrotation Yrotation Zrotation
					JOINT right_foot_ee
					{
						OFFSET	22.5	-16.5	-42.2
						CHANNELS 3  Xrotation Yrotation Zrotation
						End Site
						{
							OFFSET	1	0	0
						}
					}
				}
			}
		}
	}
}
MOTION
Frames: 5
Frame Time: 0.02
1164.03147816 741.647 -1767.06893218 5.29493340268 18.1117948688 -5.96164151438 -3.8573 0.403357 3.75611 -3.84946 0.163702 3.77413 -3.82718 -0.881449 3.67354 -3.84589 -0.290652 3.76649 4.77536 13.2215 -5.51558 5.99869 27.4996 -5.90549 -0.0 0.0 -0.0 -1.99427 23.8203 0.0454917 -11.1509 -34.2536 69.3322 0.546951 -15.1601 0.0727856 -31.327 -2.0795 3.37079 1.63146 27.9088 20.2783 -0.0 0.0 -0.0 11.1083 22.4302 -21.7076 6.95393 41.6224 -61.0373 0.971706 25.7036 -0.221695 -5.31974 0.217536 -0.644045 2.90263 -26.5611 -27.8156 0.0 0.0 0.0 12.1956 6.22174 0.666156 -61.6675 -2.38271 8.70655 41.1824 11.2234 -4.9895 -31.6471 0.0 0.0 -0.0 0.0 -0.0 0.399028 7.84062 -2.8312 2.31254 0.102114 0.340134 21.3475 13.3848 3.08906 -9.0898 0.0 0.0 0.0 0.0 0.0 
1163.95495155 742.122 -1775.79435481 5.090237754 17.7594476489 -5.32217004161 -3.74419 0.280309 3.50295 -3.73736 0.056979 3.51368 -3.72442 -0.906289 3.3954 -3.74032 -0.359021 3.49577 4.03309 12.9378 -4.87051 5.07767 26.5595 -4.97578 -0.0 0.0 -0.0 -2.47953 23.7239 -0.6325 -11.7061 -34.5756 70.3125 0.588431 -16.2511 0.0840146 -30.9421 -2.04333 3.3372 2.12469 26.5988 22.9293 -0.0 0.0 -0.0 10.8095 24.4408 -20.8438 7.44169 42.1736 -59.7177 1.02016 26.8095 -0.243132 -4.4548 0.178102 -0.540726 3.20545 -25.3481 -29.5816 0.0 0.0 0.0 13.9359 5.83101 -1.02719 -60.264 -2.22856 8.55447 40.5558 10.0539 -4.92536 -34.0289 0.0 0.0 -0.0 0.0 -0.0 -0.170151 8.67356 -2.49451 3.9155 0.18093 0.573408 19.7768 16.3628 2.94658 -8.32605 0.0 0.0 0.0 0.0 0.0 
1141.40297109 737.641 -1783.15361317 4.87858679811 20.8733206219 -5.65248005043 -3.73617 0.266247 3.2612 -3.73025 0.0583014 3.27152 -3.71872 -0.838332 3.16294 -3.73253 -0.328563 3.25552 4.61241 12.2677 -4.92265 5.6173 25.3723 -5.17034 -0.0 0.0 -0.0 -2.1584 24.082 -0.132479 -12.9873 -34.3768 70.4617 0.589265 -16.2729 0.0842482 -30.7887 -2.02898 3.32374 2.38835 25.9025 24.4068 -0.0 0.0 -0.0 10.5725 23.6069 -20.3898 9.18143 41.866 -58.329 1.16362 29.959 -0.311354 -2.98339 0.114624 -0.363655 3.20837 -24.5052 -29.443 0.0 0.0 0.0 16.3831 4.46056 -1.20717 -58.3363 -2.02304 8.33961 38.9819 6.25508 -4.76956 -34.9507 0.0 0.0 -0.0 0.0 -0.0 -1.18304 7.492 -2.10278 3.93986 0.182178 0.576935 22.2887 13.6156 3.21361 -7.8666 0.0 0.0 0.0 0.0 0.0 
1110.10188028 735.486 -1787.32047554 4.44424895939 26.0354996629 -6.41211940765 -3.56434 0.145533 3.27562 -3.55837 -0.0630844 3.27824 -3.55439 -0.948097 3.13892 -3.56787 -0.440741 3.24912 3.42694 11.8768 -4.78304 4.29157 24.718 -4.76392 -0.0 0.0 -0.0 -1.87487 24.3553 0.295841 -14.8932 -34.0324 69.7358 0.644175 -17.6983 0.10029 -30.8914 -2.03858 3.33275 2.33224 23.8039 23.563 -0.0 0.0 -0.0 10.6363 24.0027 -20.496 8.58686 39.1771 -55.5494 1.46195 35.91 -0.47377 -2.51622 0.0954256 -0.307106 3.17475 -22.6405 -28.8377 0.0 0.0 0.0 18.0709 8.85623 -3.56115 -51.1107 -1.32027 7.47663 29.9203 -0.195729 -3.90328 -35.6618 0.0 0.0 -0.0 0.0 -0.0 -2.02724 9.2449 1.09201 1.78415 0.0775715 0.262777 27.0159 14.4911 3.81126 -6.33594 0.0 0.0 0.0 0.0 0.0 
1085.56749915 738.961 -1796.02810019 4.64551962841 28.4289075495 -6.89437215292 -3.62281 0.0943168 2.91828 -3.61808 -0.0914918 2.91837 -3.61676 -0.880925 2.78386 -3.62732 -0.430406 2.88794 3.04399 11.6458 -4.36356 3.8162 24.0051 -4.20992 -0.0 0.0 -0.0 -1.07544 24.5369 1.39446 -16.0102 -33.8212 69.634 0.660109 -18.1078 0.105189 -31.2106 -2.06853 3.36065 2.14764 22.7161 22.1156 -0.0 0.0 -0.0 10.5174 23.5031 -20.2754 5.97349 36.51 -52.228 1.73342 40.6486 -0.642089 -1.97501 0.0737617 -0.241404 2.98603 -18.356 -26.5278 0.0 0.0 0.0 21.1743 14.513 -5.02649 -44.6395 -0.787995 6.6352 20.2222 -4.14652 -2.81202 -36.1182 0.0 0.0 -0.0 0.0 -0.0 -3.28871 11.0384 3.03848 -0.50218 -0.0203518 -0.0743776 30.741 12.8985 4.19271 -5.28352 0.0 0.0 0.0 0.0 0.0 
